<mxfile host="app.diagrams.net" modified="2022-10-06T09:57:50.027Z" agent="5.0 (Windows)" etag="K_RUbjHG96vScW7Uj9Sa" version="20.4.0" type="github">
  <diagram id="C5RBs43oDa-KdzZeNtuy" name="Page-1">
    <mxGraphModel dx="1422" dy="744" grid="1" gridSize="10" guides="1" tooltips="1" connect="1" arrows="1" fold="1" page="1" pageScale="1" pageWidth="827" pageHeight="1169" math="0" shadow="0">
      <root>
        <mxCell id="WIyWlLk6GJQsqaUBKTNV-0" />
        <mxCell id="WIyWlLk6GJQsqaUBKTNV-1" parent="WIyWlLk6GJQsqaUBKTNV-0" />
        <mxCell id="NwxGtyJ54GqqU0LvO2ry-4" style="edgeStyle=orthogonalEdgeStyle;rounded=0;orthogonalLoop=1;jettySize=auto;html=1;entryX=0.5;entryY=0;entryDx=0;entryDy=0;" edge="1" parent="WIyWlLk6GJQsqaUBKTNV-1" source="WIyWlLk6GJQsqaUBKTNV-3" target="NwxGtyJ54GqqU0LvO2ry-1">
          <mxGeometry relative="1" as="geometry" />
        </mxCell>
        <mxCell id="WIyWlLk6GJQsqaUBKTNV-3" value="&lt;div&gt;start&lt;/div&gt;&lt;div&gt;warehose&lt;br&gt;&lt;/div&gt;" style="rounded=1;whiteSpace=wrap;html=1;fontSize=12;glass=0;strokeWidth=1;shadow=0;" parent="WIyWlLk6GJQsqaUBKTNV-1" vertex="1">
          <mxGeometry x="340" y="30" width="120" height="50" as="geometry" />
        </mxCell>
        <mxCell id="NwxGtyJ54GqqU0LvO2ry-14" style="edgeStyle=orthogonalEdgeStyle;rounded=0;orthogonalLoop=1;jettySize=auto;html=1;entryX=0.442;entryY=-0.033;entryDx=0;entryDy=0;entryPerimeter=0;" edge="1" parent="WIyWlLk6GJQsqaUBKTNV-1" source="NwxGtyJ54GqqU0LvO2ry-1" target="NwxGtyJ54GqqU0LvO2ry-6">
          <mxGeometry relative="1" as="geometry" />
        </mxCell>
        <mxCell id="NwxGtyJ54GqqU0LvO2ry-19" style="edgeStyle=orthogonalEdgeStyle;rounded=0;orthogonalLoop=1;jettySize=auto;html=1;exitX=0;exitY=0.5;exitDx=0;exitDy=0;entryX=0.5;entryY=0;entryDx=0;entryDy=0;" edge="1" parent="WIyWlLk6GJQsqaUBKTNV-1" source="NwxGtyJ54GqqU0LvO2ry-1" target="NwxGtyJ54GqqU0LvO2ry-16">
          <mxGeometry relative="1" as="geometry" />
        </mxCell>
        <mxCell id="NwxGtyJ54GqqU0LvO2ry-1" value="ENTER GPS coordinate " style="rounded=1;whiteSpace=wrap;html=1;" vertex="1" parent="WIyWlLk6GJQsqaUBKTNV-1">
          <mxGeometry x="340" y="120" width="120" height="60" as="geometry" />
        </mxCell>
        <mxCell id="NwxGtyJ54GqqU0LvO2ry-22" style="edgeStyle=orthogonalEdgeStyle;rounded=0;orthogonalLoop=1;jettySize=auto;html=1;entryX=0.583;entryY=0;entryDx=0;entryDy=0;entryPerimeter=0;" edge="1" parent="WIyWlLk6GJQsqaUBKTNV-1" source="NwxGtyJ54GqqU0LvO2ry-6" target="NwxGtyJ54GqqU0LvO2ry-20">
          <mxGeometry relative="1" as="geometry">
            <Array as="points">
              <mxPoint x="530" y="310" />
              <mxPoint x="410" y="310" />
            </Array>
          </mxGeometry>
        </mxCell>
        <mxCell id="NwxGtyJ54GqqU0LvO2ry-6" value="&lt;div&gt;Coordinate provided &lt;br&gt;&lt;/div&gt;&lt;div&gt;by user&lt;br&gt; &lt;/div&gt;" style="rounded=1;whiteSpace=wrap;html=1;" vertex="1" parent="WIyWlLk6GJQsqaUBKTNV-1">
          <mxGeometry x="470" y="200" width="120" height="60" as="geometry" />
        </mxCell>
        <mxCell id="NwxGtyJ54GqqU0LvO2ry-21" style="edgeStyle=orthogonalEdgeStyle;rounded=0;orthogonalLoop=1;jettySize=auto;html=1;entryX=0.5;entryY=0;entryDx=0;entryDy=0;" edge="1" parent="WIyWlLk6GJQsqaUBKTNV-1" source="NwxGtyJ54GqqU0LvO2ry-16" target="NwxGtyJ54GqqU0LvO2ry-20">
          <mxGeometry relative="1" as="geometry">
            <Array as="points">
              <mxPoint x="260" y="310" />
              <mxPoint x="400" y="310" />
            </Array>
          </mxGeometry>
        </mxCell>
        <mxCell id="NwxGtyJ54GqqU0LvO2ry-16" value="Extract currnet location" style="rounded=1;whiteSpace=wrap;html=1;" vertex="1" parent="WIyWlLk6GJQsqaUBKTNV-1">
          <mxGeometry x="200" y="200" width="120" height="60" as="geometry" />
        </mxCell>
        <mxCell id="NwxGtyJ54GqqU0LvO2ry-29" style="edgeStyle=orthogonalEdgeStyle;rounded=0;orthogonalLoop=1;jettySize=auto;html=1;entryX=0.5;entryY=0;entryDx=0;entryDy=0;" edge="1" parent="WIyWlLk6GJQsqaUBKTNV-1" source="NwxGtyJ54GqqU0LvO2ry-20" target="NwxGtyJ54GqqU0LvO2ry-28">
          <mxGeometry relative="1" as="geometry" />
        </mxCell>
        <mxCell id="NwxGtyJ54GqqU0LvO2ry-20" value="&lt;div&gt;estimate location&lt;/div&gt;&lt;div&gt;and send it to drone&lt;br&gt; &lt;/div&gt;" style="rounded=1;whiteSpace=wrap;html=1;" vertex="1" parent="WIyWlLk6GJQsqaUBKTNV-1">
          <mxGeometry x="340" y="330" width="120" height="60" as="geometry" />
        </mxCell>
        <mxCell id="NwxGtyJ54GqqU0LvO2ry-45" style="edgeStyle=orthogonalEdgeStyle;rounded=0;orthogonalLoop=1;jettySize=auto;html=1;entryX=0.583;entryY=0.033;entryDx=0;entryDy=0;entryPerimeter=0;" edge="1" parent="WIyWlLk6GJQsqaUBKTNV-1" source="NwxGtyJ54GqqU0LvO2ry-28" target="NwxGtyJ54GqqU0LvO2ry-30">
          <mxGeometry relative="1" as="geometry" />
        </mxCell>
        <mxCell id="NwxGtyJ54GqqU0LvO2ry-28" value="&lt;div&gt;motors turn on&lt;/div&gt;&lt;div&gt;increase attitude&lt;br&gt;&lt;/div&gt;&lt;div&gt;go to user location&lt;br&gt;&lt;/div&gt;" style="rounded=0;whiteSpace=wrap;html=1;" vertex="1" parent="WIyWlLk6GJQsqaUBKTNV-1">
          <mxGeometry x="340" y="420" width="120" height="60" as="geometry" />
        </mxCell>
        <mxCell id="NwxGtyJ54GqqU0LvO2ry-34" style="edgeStyle=orthogonalEdgeStyle;rounded=0;orthogonalLoop=1;jettySize=auto;html=1;exitX=0.5;exitY=1;exitDx=0;exitDy=0;entryX=0.5;entryY=0;entryDx=0;entryDy=0;" edge="1" parent="WIyWlLk6GJQsqaUBKTNV-1" source="NwxGtyJ54GqqU0LvO2ry-30" target="NwxGtyJ54GqqU0LvO2ry-33">
          <mxGeometry relative="1" as="geometry" />
        </mxCell>
        <mxCell id="NwxGtyJ54GqqU0LvO2ry-30" value="read avoidance sensor" style="rounded=1;whiteSpace=wrap;html=1;" vertex="1" parent="WIyWlLk6GJQsqaUBKTNV-1">
          <mxGeometry x="330" y="555" width="120" height="60" as="geometry" />
        </mxCell>
        <mxCell id="NwxGtyJ54GqqU0LvO2ry-36" style="edgeStyle=orthogonalEdgeStyle;rounded=0;orthogonalLoop=1;jettySize=auto;html=1;exitX=1;exitY=0.5;exitDx=0;exitDy=0;entryX=0;entryY=0.5;entryDx=0;entryDy=0;" edge="1" parent="WIyWlLk6GJQsqaUBKTNV-1" source="NwxGtyJ54GqqU0LvO2ry-33" target="NwxGtyJ54GqqU0LvO2ry-35">
          <mxGeometry relative="1" as="geometry" />
        </mxCell>
        <mxCell id="NwxGtyJ54GqqU0LvO2ry-39" style="edgeStyle=orthogonalEdgeStyle;rounded=0;orthogonalLoop=1;jettySize=auto;html=1;entryX=0.417;entryY=0.167;entryDx=0;entryDy=0;entryPerimeter=0;" edge="1" parent="WIyWlLk6GJQsqaUBKTNV-1" source="NwxGtyJ54GqqU0LvO2ry-33" target="NwxGtyJ54GqqU0LvO2ry-38">
          <mxGeometry relative="1" as="geometry" />
        </mxCell>
        <mxCell id="NwxGtyJ54GqqU0LvO2ry-33" value="&lt;div&gt;there is any object&lt;/div&gt;&lt;div&gt;infront&lt;br&gt;&lt;/div&gt;" style="rhombus;whiteSpace=wrap;html=1;" vertex="1" parent="WIyWlLk6GJQsqaUBKTNV-1">
          <mxGeometry x="320" y="700" width="140" height="120" as="geometry" />
        </mxCell>
        <mxCell id="NwxGtyJ54GqqU0LvO2ry-41" style="edgeStyle=orthogonalEdgeStyle;rounded=0;orthogonalLoop=1;jettySize=auto;html=1;entryX=1;entryY=0.5;entryDx=0;entryDy=0;" edge="1" parent="WIyWlLk6GJQsqaUBKTNV-1" source="NwxGtyJ54GqqU0LvO2ry-35" target="NwxGtyJ54GqqU0LvO2ry-38">
          <mxGeometry relative="1" as="geometry">
            <Array as="points">
              <mxPoint x="580" y="900" />
              <mxPoint x="460" y="900" />
            </Array>
          </mxGeometry>
        </mxCell>
        <mxCell id="NwxGtyJ54GqqU0LvO2ry-35" value="avoid the object" style="rounded=0;whiteSpace=wrap;html=1;" vertex="1" parent="WIyWlLk6GJQsqaUBKTNV-1">
          <mxGeometry x="560" y="730" width="120" height="60" as="geometry" />
        </mxCell>
        <mxCell id="NwxGtyJ54GqqU0LvO2ry-37" value="yes" style="text;html=1;align=center;verticalAlign=middle;resizable=0;points=[];autosize=1;strokeColor=none;fillColor=none;" vertex="1" parent="WIyWlLk6GJQsqaUBKTNV-1">
          <mxGeometry x="470" y="760" width="40" height="30" as="geometry" />
        </mxCell>
        <mxCell id="NwxGtyJ54GqqU0LvO2ry-53" style="edgeStyle=orthogonalEdgeStyle;rounded=0;orthogonalLoop=1;jettySize=auto;html=1;exitX=0.5;exitY=1;exitDx=0;exitDy=0;entryX=0.5;entryY=0;entryDx=0;entryDy=0;" edge="1" parent="WIyWlLk6GJQsqaUBKTNV-1" source="NwxGtyJ54GqqU0LvO2ry-38" target="NwxGtyJ54GqqU0LvO2ry-52">
          <mxGeometry relative="1" as="geometry" />
        </mxCell>
        <mxCell id="NwxGtyJ54GqqU0LvO2ry-38" value="continuou to coordinate" style="rounded=0;whiteSpace=wrap;html=1;" vertex="1" parent="WIyWlLk6GJQsqaUBKTNV-1">
          <mxGeometry x="340" y="870" width="120" height="60" as="geometry" />
        </mxCell>
        <mxCell id="NwxGtyJ54GqqU0LvO2ry-40" value="no" style="text;html=1;align=center;verticalAlign=middle;resizable=0;points=[];autosize=1;strokeColor=none;fillColor=none;" vertex="1" parent="WIyWlLk6GJQsqaUBKTNV-1">
          <mxGeometry x="394" y="820" width="40" height="30" as="geometry" />
        </mxCell>
        <mxCell id="NwxGtyJ54GqqU0LvO2ry-47" value="Actor" style="shape=umlActor;verticalLabelPosition=bottom;verticalAlign=top;html=1;outlineConnect=0;" vertex="1" parent="WIyWlLk6GJQsqaUBKTNV-1">
          <mxGeometry x="515" y="20" width="30" height="60" as="geometry" />
        </mxCell>
        <mxCell id="NwxGtyJ54GqqU0LvO2ry-56" style="edgeStyle=orthogonalEdgeStyle;rounded=0;orthogonalLoop=1;jettySize=auto;html=1;exitX=0;exitY=0.5;exitDx=0;exitDy=0;entryX=0;entryY=0.5;entryDx=0;entryDy=0;" edge="1" parent="WIyWlLk6GJQsqaUBKTNV-1" source="NwxGtyJ54GqqU0LvO2ry-52" target="NwxGtyJ54GqqU0LvO2ry-38">
          <mxGeometry relative="1" as="geometry">
            <Array as="points">
              <mxPoint x="260" y="1005" />
              <mxPoint x="260" y="900" />
            </Array>
          </mxGeometry>
        </mxCell>
        <mxCell id="NwxGtyJ54GqqU0LvO2ry-58" style="edgeStyle=orthogonalEdgeStyle;rounded=0;orthogonalLoop=1;jettySize=auto;html=1;exitX=0.5;exitY=1;exitDx=0;exitDy=0;entryX=0.5;entryY=0;entryDx=0;entryDy=0;" edge="1" parent="WIyWlLk6GJQsqaUBKTNV-1" source="NwxGtyJ54GqqU0LvO2ry-52" target="NwxGtyJ54GqqU0LvO2ry-57">
          <mxGeometry relative="1" as="geometry" />
        </mxCell>
        <mxCell id="NwxGtyJ54GqqU0LvO2ry-52" value="&lt;div&gt;current location =&lt;/div&gt;&lt;div&gt;user location&lt;br&gt;&lt;/div&gt;" style="rhombus;whiteSpace=wrap;html=1;" vertex="1" parent="WIyWlLk6GJQsqaUBKTNV-1">
          <mxGeometry x="340" y="950" width="120" height="110" as="geometry" />
        </mxCell>
        <mxCell id="NwxGtyJ54GqqU0LvO2ry-55" value="no" style="text;html=1;align=center;verticalAlign=middle;resizable=0;points=[];autosize=1;strokeColor=none;fillColor=none;" vertex="1" parent="WIyWlLk6GJQsqaUBKTNV-1">
          <mxGeometry x="280" y="975" width="40" height="30" as="geometry" />
        </mxCell>
        <mxCell id="NwxGtyJ54GqqU0LvO2ry-57" value="lower attitude " style="rounded=1;whiteSpace=wrap;html=1;" vertex="1" parent="WIyWlLk6GJQsqaUBKTNV-1">
          <mxGeometry x="340" y="1090" width="120" height="60" as="geometry" />
        </mxCell>
      </root>
    </mxGraphModel>
  </diagram>
</mxfile>
